<svg width="48" height="48" viewBox="0 0 48 48" fill="none" xmlns="http://www.w3.org/2000/svg">
<circle cx="24" cy="24" r="23.5" fill="url(#paint0_linear_116_444)" stroke="white"/>
<path fill-rule="evenodd" clip-rule="evenodd" d="M38.4914 9.39029C40.1585 10.9633 41.5558 12.7328 42.6832 14.6989C43.3016 15.8435 43.8075 17.0338 44.2008 18.2699C44.4794 19.1155 44.7018 19.9726 44.8679 20.8409C45.004 21.657 45.0839 22.1863 45.1074 22.4288C45.2221 23.6167 45.2591 24.6459 45.2184 25.5164C45.1814 26.3151 45.0648 27.3068 44.8687 28.4916C44.7439 29.2338 44.5711 29.9722 44.3503 30.707C43.8278 32.5642 43.0331 34.3075 41.9662 35.9371C41.4068 36.8203 40.7686 37.6477 40.0516 38.4194C39.1219 39.4938 38.0786 40.4465 36.9216 41.2773C36.1066 41.8869 35.2506 42.4178 34.3535 42.8699C33.3515 43.4267 32.3039 43.8672 31.2107 44.1915C29.4528 44.7137 27.961 45.1058 26.269 45.1883C25.5456 45.2236 24.8224 45.2543 24.0996 45.2802C22.5997 45.3333 22.5378 43.4174 24.1189 43.4372C24.3282 43.4398 24.5384 43.4441 24.7491 43.4484C25.8566 43.4713 26.9769 43.4944 28.0574 43.2574C28.4636 43.1681 29.1661 42.9708 30.165 42.6655C31.1022 42.3787 32.0137 42.0301 32.8995 41.6196C33.617 41.2536 34.3141 40.8535 34.9909 40.4193C35.9145 39.7759 36.8212 39.1238 37.5992 38.3085C37.9197 37.9726 38.2463 37.6366 38.5791 37.3007C39.3528 36.4576 40.0446 35.5457 40.6544 34.5648C41.5392 33.0477 42.217 31.4425 42.688 29.749L43.0972 27.8387C43.5015 25.4705 43.4404 23.1656 42.9838 20.795C42.5096 18.5012 41.6608 16.3548 40.3691 14.4089C38.799 12.0451 36.8967 10.1195 34.6622 8.63203C34.0304 8.1857 33.37 7.78372 32.6808 7.42612C32.6756 7.42315 32.6727 7.42038 32.6722 7.41782C32.6716 7.41538 32.6732 7.41313 32.6768 7.41106C32.6778 7.41043 32.6789 7.4098 32.6803 7.40916C32.6812 7.40874 32.6822 7.40832 32.6832 7.4079C32.6875 7.40578 32.6878 7.40394 32.684 7.40235C32.3432 7.24864 32.0057 7.08885 31.6713 6.923C31.6273 6.90187 31.5464 6.87202 31.4285 6.83346C31.3568 6.8104 31.2879 6.77426 31.2239 6.74068C31.1845 6.72004 31.147 6.70037 31.1118 6.68529C28.9834 5.77888 26.5889 5.33993 24.2804 5.32646C22.525 5.3159 20.7697 5.31141 19.0148 5.313C18.7319 5.313 18.4875 5.18728 18.2817 4.93585C18.2525 4.89999 18.2335 4.85607 18.2141 4.81099C18.194 4.76443 18.1734 4.71664 18.1403 4.67517C18.1221 4.65246 18.1108 4.62685 18.1065 4.59832C18.0513 4.24653 18.1751 3.93752 18.4779 3.6713C18.6322 3.53502 18.7913 3.46847 18.9553 3.47163C20.0495 3.49065 21.1403 3.49171 22.2275 3.47481C23.4868 3.4579 24.5259 3.47639 25.3446 3.53027C28.0526 3.70854 30.8032 4.48502 33.2427 5.70044C35.0689 6.61082 36.838 7.91182 38.4914 9.39029ZM4.26177 10.2656L8.0915 10.2795C8.35244 10.267 8.61016 10.2762 8.86467 10.3073C8.90649 10.3126 9.12028 10.3087 9.39361 10.3039C9.96426 10.2937 10.7945 10.2788 10.8611 10.3326C11.1236 10.3992 11.1325 10.4144 11.2246 10.5708C11.2453 10.606 11.2702 10.6483 11.3032 10.7C11.3084 10.7082 11.322 10.7388 11.3383 10.7757L11.3384 10.7758C11.3689 10.8446 11.4091 10.9354 11.4237 10.9449C11.4491 10.9612 11.5438 11.1536 11.6177 11.3037L11.6177 11.3038C11.6575 11.3847 11.6913 11.4534 11.705 11.4757C11.7808 11.5998 11.809 11.6484 11.8479 11.7157L11.8479 11.7157L11.848 11.7158C11.872 11.7574 11.9001 11.806 11.9461 11.8839C11.9703 11.903 11.9258 11.9835 11.906 12.0064C11.8976 12.0155 11.3691 12.0258 10.9628 12.0338L10.9614 12.0338C10.7156 12.0386 10.515 12.0425 10.5018 12.0448L3.08834 12.0937L2.01699 12.0742C1.43831 11.8153 1.14495 11.2054 1.54118 10.6428C1.72389 10.3843 2.00412 10.267 2.38187 10.2909C2.64335 10.3078 3.26998 10.2994 4.26177 10.2656ZM13.3608 10.3236L14.1751 10.3339L18.4843 10.341L20.9898 10.3829C21.5908 10.3873 22.1234 10.3865 22.6173 10.3858C23.801 10.3841 24.762 10.3826 25.9078 10.4541C27.5725 10.5569 29.2943 11.0298 30.8024 11.7298C30.903 11.7765 31.0052 11.8214 31.1076 11.8663L31.1077 11.8664L31.1077 11.8664L31.1077 11.8664L31.1078 11.8664L31.1078 11.8664L31.108 11.8665C31.3936 11.9919 31.6809 12.118 31.9404 12.2873C32.1395 12.4176 32.2913 12.5114 32.3957 12.5689C33.206 13.0165 33.9552 13.6215 34.637 14.2384C36.6921 16.0978 38.1199 18.4878 38.8418 21.1136C39.3028 22.7894 39.3992 24.6187 39.2835 26.3476C39.1909 27.4153 38.9711 28.454 38.6242 29.4637C38.4844 29.8715 38.2872 30.2978 38.0944 30.7146L38.0943 30.7147C38.0546 30.8007 38.015 30.8862 37.9762 30.9711C37.6448 31.7029 37.2432 32.391 36.7716 33.0353L35.9107 34.156C34.8201 35.4693 33.5261 36.5468 32.0287 37.3883C31.0377 37.9335 30.0542 38.3408 29.0782 38.6102C28.0043 38.907 27.0508 39.1019 26.2178 39.1947C25.2472 39.3022 24.1337 39.2856 23.0449 39.2694H23.0449H23.0448H23.0448H23.0448H23.0447H23.0447H23.0447H23.0446C22.6282 39.2632 22.2153 39.2571 21.8154 39.2579L13.5848 39.2532C13.5609 39.2532 13.5379 39.2439 13.5209 39.2273C13.5039 39.2107 13.4943 39.1882 13.4941 39.1646L13.4483 34.8733C13.4874 34.5469 13.5042 34.2894 13.4989 34.1006C13.4668 32.9111 13.4625 31.7142 13.486 30.51L13.4724 27.4438L13.4812 24.8505L13.478 21.0297L13.4812 17.863L13.478 12.7998L13.4732 12.1798C13.4722 12.0885 13.4346 12.0015 13.3688 11.9378C12.8779 11.4638 12.3832 10.9782 11.8847 10.481C11.8467 10.443 11.8245 10.4135 11.8181 10.3924C11.8015 10.3386 11.8218 10.312 11.8791 10.3125L13.3608 10.3236ZM12.0267 37.4391C9.15916 37.437 6.28622 37.426 3.40789 37.4062C2.45374 37.7173 2.37456 39.1129 3.48221 39.2452C3.80107 39.2831 4.10835 39.2911 4.40404 39.2692C7.03569 39.2537 9.66195 39.2489 12.2828 39.2548C12.3882 39.2548 12.5032 39.2555 12.625 39.2563C12.7618 39.2571 12.9072 39.258 13.0568 39.258C13.1974 39.258 13.2184 39.1378 13.2184 38.9774C13.2184 38.8839 13.2181 38.7917 13.2178 38.6996C13.2172 38.5153 13.2166 38.331 13.2184 38.1357C13.2189 38.0457 13.2188 37.9904 13.2186 37.9142V37.9141V37.9141V37.9141V37.914V37.9139L13.2184 37.7349V37.6147C13.2184 37.4944 13.178 37.4543 13.0164 37.4543H12.8548C12.4321 37.4391 12.1581 37.4391 12.0267 37.4391ZM12.6146 27.8332C13.0103 27.8332 13.0122 27.9706 13.0157 28.217V28.2171C13.0161 28.2468 13.0166 28.2781 13.0177 28.3109C13.0184 28.3271 13.0182 28.4024 13.018 28.4958V28.4962L13.0177 28.6692V28.7886C13.0177 29.3729 13.0177 29.5058 12.962 29.5361C12.9456 29.545 12.9243 29.545 12.8968 29.545C12.707 29.5545 11.7653 29.5779 11.5664 29.5784C9.85967 29.5816 8.15298 29.5805 6.44629 29.5752C6.04421 29.5742 5.78995 29.7485 5.68352 30.0983C5.65342 30.1965 5.68217 30.2881 5.76979 30.373C6.89648 31.4675 7.94119 32.4518 8.90393 33.326C9.01036 33.4224 9.1305 33.4566 9.28531 33.4622C9.65393 33.4756 10.4461 33.4988 11.2035 33.521C11.8499 33.5399 12.4709 33.5581 12.7815 33.5689L12.9774 33.6453C13.0011 33.6549 13.0167 33.6716 13.0242 33.6955C13.0784 33.8755 13.0739 34.0618 13.0696 34.2344C13.0677 34.3159 13.0657 34.3944 13.0701 34.4678C13.0879 34.7496 13.0761 35.0256 13.0347 35.2958C12.4694 35.2994 11.5096 35.2933 10.5747 35.2874H10.5738C9.72382 35.282 8.89448 35.2768 8.40079 35.2791C8.23737 35.2796 8.08606 35.217 7.94683 35.0912C6.4272 33.718 5.28977 32.6843 4.53452 31.99C3.79917 31.3133 3.19766 30.584 3.50325 29.5068C3.62312 29.0837 3.81652 28.7255 4.09669 28.4447C4.19934 28.3418 4.25249 28.2885 4.31166 28.2431C4.37519 28.1943 4.44565 28.1545 4.59178 28.072L4.95462 27.9128C5.27714 27.8236 4.95462 27.9128 5.27714 27.8236L5.28013 27.8234C5.40353 27.813 5.40989 27.8125 5.4162 27.8116L5.41724 27.8115C5.42429 27.8105 5.43842 27.8085 5.59967 27.7934C6.08345 27.7536 6.256 27.752 6.56724 27.7536C6.63466 27.7541 6.70489 27.754 6.77675 27.7538H6.77682H6.77688H6.77695H6.77819L6.88976 27.7536L7.1205 27.7523C7.47254 27.7501 7.83306 27.7479 8.17986 27.7536C8.32944 27.7559 8.43067 27.7549 8.50571 27.7541L8.55662 27.7537L8.58302 27.7536C8.72503 27.7627 8.74302 27.763 8.78898 27.7636H8.78904L8.80959 27.7639L10.0634 27.7775H10.1233C10.1383 27.7775 10.147 27.7776 10.1533 27.7778C10.1618 27.778 10.166 27.7781 10.1752 27.7775L10.5222 27.7774H10.6794L10.8407 27.7775H10.9213L11.0061 27.7774L11.1229 27.7775C11.4656 27.7854 11.5966 27.7894 11.6621 27.7914C11.6915 27.7923 11.7077 27.7928 11.7239 27.793C11.7438 27.7934 11.7638 27.7934 11.8083 27.7934L12.6146 27.8332ZM10.2396 25.3232C10.1112 25.5006 9.94766 25.6511 9.75844 25.7662C9.37628 25.9986 8.91258 26.0725 8.46934 25.9715C8.02611 25.8705 7.63966 25.603 7.395 25.2278C7.27385 25.0421 7.19117 24.8354 7.15166 24.6198C7.11215 24.4041 7.11659 24.1836 7.16473 23.9709C7.21288 23.7581 7.30377 23.5573 7.43224 23.3799C7.5607 23.2025 7.72421 23.052 7.91344 22.9369C8.2956 22.7045 8.7593 22.6307 9.20253 22.7316C9.64576 22.8326 10.0322 23.1001 10.2769 23.4753C10.398 23.6611 10.4807 23.8677 10.5202 24.0834C10.5597 24.299 10.5553 24.5195 10.5071 24.7323C10.459 24.945 10.3681 25.1458 10.2396 25.3232ZM12.1667 20.0104L13.0109 19.981C13.1182 19.9772 13.1719 19.9225 13.1719 19.8168L13.1711 18.3332C13.1711 18.3226 13.1676 18.3122 13.1613 18.3036C13.1549 18.295 13.1459 18.2886 13.1357 18.2854C13.031 18.2504 12.9371 18.2334 12.854 18.2344C12.4553 18.2397 12.0712 18.2461 11.7015 18.2535C9.81179 18.2445 7.93362 18.2403 6.067 18.2408C5.48378 18.2408 5.04864 18.2788 4.76159 18.3547C4.10701 18.5284 3.53855 18.8713 3.0562 19.3834C2.40028 20.0806 2.08238 21.6167 2.79705 22.3577C3.41273 22.996 4.42438 22.7976 4.6964 21.9554C4.76155 21.755 4.75718 21.5362 4.75288 21.3211C4.74778 21.066 4.74278 20.816 4.85415 20.608C5.05374 20.2359 5.55997 20.0407 5.95271 20.0423C8.0243 20.0513 10.0956 20.0407 12.1667 20.0104ZM8.93964 14.1856L1.85222 14.1562C1.75847 14.1621 1.65352 14.1651 1.54344 14.1683H1.54334H1.54324H1.54319C1.17246 14.179 0.743695 14.1914 0.489652 14.3175C-0.126611 14.6234 -0.0628025 15.4711 0.454115 15.8493C0.581191 15.9425 0.798457 16.0032 1.10592 16.0312C1.35684 16.0079 1.6118 15.9963 1.87079 15.9963C5.08322 15.9936 8.29457 15.9939 11.5048 15.9971C11.5242 15.9851 12.4583 15.9995 12.9064 16.0065C13.0326 16.0084 13.1202 16.0098 13.138 16.0098C13.21 16.0098 13.2187 16.0098 13.2187 15.9303V15.692V15.6029V15.2947V15.1358V14.7386V14.5003V14.2619C13.2187 14.2224 13.2187 14.2025 13.2088 14.1925C13.1988 14.1825 13.1786 14.1825 13.138 14.1825C13.1262 14.1771 11.6194 14.1806 11.0083 14.182L10.7553 14.1825L8.93964 14.1856Z" fill="white"/>
<path fill-rule="evenodd" clip-rule="evenodd" d="M38.4914 9.39029C40.1585 10.9633 41.5558 12.7328 42.6832 14.6989C43.3016 15.8435 43.8075 17.0338 44.2008 18.2699C44.4794 19.1155 44.7018 19.9726 44.8679 20.8409C45.004 21.657 45.0839 22.1863 45.1074 22.4288C45.2221 23.6167 45.2591 24.6459 45.2184 25.5164C45.1814 26.3151 45.0648 27.3068 44.8687 28.4916C44.7439 29.2338 44.5711 29.9722 44.3503 30.707C43.8278 32.5642 43.0331 34.3075 41.9662 35.9371C41.4068 36.8203 40.7686 37.6477 40.0516 38.4194C39.1219 39.4938 38.0786 40.4465 36.9216 41.2773C36.1066 41.8869 35.2506 42.4178 34.3535 42.8699C33.3515 43.4267 32.3039 43.8672 31.2107 44.1915C29.4528 44.7137 27.961 45.1058 26.269 45.1883C25.5456 45.2236 24.8224 45.2543 24.0996 45.2802C22.5997 45.3333 22.5378 43.4174 24.1189 43.4372C24.3282 43.4398 24.5384 43.4441 24.7491 43.4484C25.8566 43.4713 26.9769 43.4944 28.0574 43.2574C28.4636 43.1681 29.1661 42.9708 30.165 42.6655C31.1022 42.3787 32.0137 42.0301 32.8995 41.6196C33.617 41.2536 34.3141 40.8535 34.9909 40.4193C35.9145 39.7759 36.8212 39.1238 37.5992 38.3085C37.9197 37.9726 38.2463 37.6366 38.5791 37.3007C39.3528 36.4576 40.0446 35.5457 40.6544 34.5648C41.5392 33.0477 42.217 31.4425 42.688 29.749L43.0972 27.8387C43.5015 25.4705 43.4404 23.1656 42.9838 20.795C42.5096 18.5012 41.6608 16.3548 40.3691 14.4089C38.799 12.0451 36.8967 10.1195 34.6622 8.63203C34.0304 8.1857 33.37 7.78372 32.6808 7.42612C32.6756 7.42315 32.6727 7.42038 32.6722 7.41782C32.6716 7.41538 32.6732 7.41313 32.6768 7.41106C32.6778 7.41043 32.6789 7.4098 32.6803 7.40916C32.6812 7.40874 32.6822 7.40832 32.6832 7.4079C32.6875 7.40578 32.6878 7.40394 32.684 7.40235C32.3432 7.24864 32.0057 7.08885 31.6713 6.923C31.6273 6.90187 31.5464 6.87202 31.4285 6.83346C31.3568 6.8104 31.2879 6.77426 31.2239 6.74068C31.1845 6.72004 31.147 6.70037 31.1118 6.68529C28.9834 5.77888 26.5889 5.33993 24.2804 5.32646C22.525 5.3159 20.7697 5.31141 19.0148 5.313C18.7319 5.313 18.4875 5.18728 18.2817 4.93585C18.2525 4.89999 18.2335 4.85607 18.2141 4.81099C18.194 4.76443 18.1734 4.71664 18.1403 4.67517C18.1221 4.65246 18.1108 4.62685 18.1065 4.59832C18.0513 4.24653 18.1751 3.93752 18.4779 3.6713C18.6322 3.53502 18.7913 3.46847 18.9553 3.47163C20.0495 3.49065 21.1403 3.49171 22.2275 3.47481C23.4868 3.4579 24.5259 3.47639 25.3446 3.53027C28.0526 3.70854 30.8032 4.48502 33.2427 5.70044C35.0689 6.61082 36.838 7.91182 38.4914 9.39029ZM4.26177 10.2656L8.0915 10.2795C8.35244 10.267 8.61016 10.2762 8.86467 10.3073C8.90649 10.3126 9.12028 10.3087 9.39361 10.3039C9.96426 10.2937 10.7945 10.2788 10.8611 10.3326C11.1236 10.3992 11.1325 10.4144 11.2246 10.5708C11.2453 10.606 11.2702 10.6483 11.3032 10.7C11.3084 10.7082 11.322 10.7388 11.3383 10.7757L11.3384 10.7758C11.3689 10.8446 11.4091 10.9354 11.4237 10.9449C11.4491 10.9612 11.5438 11.1536 11.6177 11.3037L11.6177 11.3038C11.6575 11.3847 11.6913 11.4534 11.705 11.4757C11.7808 11.5998 11.809 11.6484 11.8479 11.7157L11.8479 11.7157L11.848 11.7158C11.872 11.7574 11.9001 11.806 11.9461 11.8839C11.9703 11.903 11.9258 11.9835 11.906 12.0064C11.8976 12.0155 11.3691 12.0258 10.9628 12.0338L10.9614 12.0338C10.7156 12.0386 10.515 12.0425 10.5018 12.0448L3.08834 12.0937L2.01699 12.0742C1.43831 11.8153 1.14495 11.2054 1.54118 10.6428C1.72389 10.3843 2.00412 10.267 2.38187 10.2909C2.64335 10.3078 3.26998 10.2994 4.26177 10.2656ZM13.3608 10.3236L14.1751 10.3339L18.4843 10.341L20.9898 10.3829C21.5908 10.3873 22.1234 10.3865 22.6173 10.3858C23.801 10.3841 24.762 10.3826 25.9078 10.4541C27.5725 10.5569 29.2943 11.0298 30.8024 11.7298C30.903 11.7765 31.0052 11.8214 31.1076 11.8663L31.1077 11.8664L31.1077 11.8664L31.1077 11.8664L31.1078 11.8664L31.1078 11.8664L31.108 11.8665C31.3936 11.9919 31.6809 12.118 31.9404 12.2873C32.1395 12.4176 32.2913 12.5114 32.3957 12.5689C33.206 13.0165 33.9552 13.6215 34.637 14.2384C36.6921 16.0978 38.1199 18.4878 38.8418 21.1136C39.3028 22.7894 39.3992 24.6187 39.2835 26.3476C39.1909 27.4153 38.9711 28.454 38.6242 29.4637C38.4844 29.8715 38.2872 30.2978 38.0944 30.7146L38.0943 30.7147C38.0546 30.8007 38.015 30.8862 37.9762 30.9711C37.6448 31.7029 37.2432 32.391 36.7716 33.0353L35.9107 34.156C34.8201 35.4693 33.5261 36.5468 32.0287 37.3883C31.0377 37.9335 30.0542 38.3408 29.0782 38.6102C28.0043 38.907 27.0508 39.1019 26.2178 39.1947C25.2472 39.3022 24.1337 39.2856 23.0449 39.2694H23.0449H23.0448H23.0448H23.0448H23.0447H23.0447H23.0447H23.0446C22.6282 39.2632 22.2153 39.2571 21.8154 39.2579L13.5848 39.2532C13.5609 39.2532 13.5379 39.2439 13.5209 39.2273C13.5039 39.2107 13.4943 39.1882 13.4941 39.1646L13.4483 34.8733C13.4874 34.5469 13.5042 34.2894 13.4989 34.1006C13.4668 32.9111 13.4625 31.7142 13.486 30.51L13.4724 27.4438L13.4812 24.8505L13.478 21.0297L13.4812 17.863L13.478 12.7998L13.4732 12.1798C13.4722 12.0885 13.4346 12.0015 13.3688 11.9378C12.8779 11.4638 12.3832 10.9782 11.8847 10.481C11.8467 10.443 11.8245 10.4135 11.8181 10.3924C11.8015 10.3386 11.8218 10.312 11.8791 10.3125L13.3608 10.3236ZM12.0267 37.4391C9.15916 37.437 6.28622 37.426 3.40789 37.4062C2.45374 37.7173 2.37456 39.1129 3.48221 39.2452C3.80107 39.2831 4.10835 39.2911 4.40404 39.2692C7.03569 39.2537 9.66195 39.2489 12.2828 39.2548C12.3882 39.2548 12.5032 39.2555 12.625 39.2563C12.7618 39.2571 12.9072 39.258 13.0568 39.258C13.1974 39.258 13.2184 39.1378 13.2184 38.9774C13.2184 38.8839 13.2181 38.7917 13.2178 38.6996C13.2172 38.5153 13.2166 38.331 13.2184 38.1357C13.2189 38.0457 13.2188 37.9904 13.2186 37.9142V37.9141V37.9141V37.9141V37.914V37.9139L13.2184 37.7349V37.6147C13.2184 37.4944 13.178 37.4543 13.0164 37.4543H12.8548C12.4321 37.4391 12.1581 37.4391 12.0267 37.4391ZM12.6146 27.8332C13.0103 27.8332 13.0122 27.9706 13.0157 28.217V28.2171C13.0161 28.2468 13.0166 28.2781 13.0177 28.3109C13.0184 28.3271 13.0182 28.4024 13.018 28.4958V28.4962L13.0177 28.6692V28.7886C13.0177 29.3729 13.0177 29.5058 12.962 29.5361C12.9456 29.545 12.9243 29.545 12.8968 29.545C12.707 29.5545 11.7653 29.5779 11.5664 29.5784C9.85967 29.5816 8.15298 29.5805 6.44629 29.5752C6.04421 29.5742 5.78995 29.7485 5.68352 30.0983C5.65342 30.1965 5.68217 30.2881 5.76979 30.373C6.89648 31.4675 7.94119 32.4518 8.90393 33.326C9.01036 33.4224 9.1305 33.4566 9.28531 33.4622C9.65393 33.4756 10.4461 33.4988 11.2035 33.521C11.8499 33.5399 12.4709 33.5581 12.7815 33.5689L12.9774 33.6453C13.0011 33.6549 13.0167 33.6716 13.0242 33.6955C13.0784 33.8755 13.0739 34.0618 13.0696 34.2344C13.0677 34.3159 13.0657 34.3944 13.0701 34.4678C13.0879 34.7496 13.0761 35.0256 13.0347 35.2958C12.4694 35.2994 11.5096 35.2933 10.5747 35.2874H10.5738C9.72382 35.282 8.89448 35.2768 8.40079 35.2791C8.23737 35.2796 8.08606 35.217 7.94683 35.0912C6.4272 33.718 5.28977 32.6843 4.53452 31.99C3.79917 31.3133 3.19766 30.584 3.50325 29.5068C3.62312 29.0837 3.81652 28.7255 4.09669 28.4447C4.19934 28.3418 4.25249 28.2885 4.31166 28.2431C4.37519 28.1943 4.44565 28.1545 4.59178 28.072L4.95462 27.9128C5.27714 27.8236 4.95462 27.9128 5.27714 27.8236L5.28013 27.8234C5.40353 27.813 5.40989 27.8125 5.4162 27.8116L5.41724 27.8115C5.42429 27.8105 5.43842 27.8085 5.59967 27.7934C6.08345 27.7536 6.256 27.752 6.56724 27.7536C6.63466 27.7541 6.70489 27.754 6.77675 27.7538H6.77682H6.77688H6.77695H6.77819L6.88976 27.7536L7.1205 27.7523C7.47254 27.7501 7.83306 27.7479 8.17986 27.7536C8.32944 27.7559 8.43067 27.7549 8.50571 27.7541L8.55662 27.7537L8.58302 27.7536C8.72503 27.7627 8.74302 27.763 8.78898 27.7636H8.78904L8.80959 27.7639L10.0634 27.7775H10.1233C10.1383 27.7775 10.147 27.7776 10.1533 27.7778C10.1618 27.778 10.166 27.7781 10.1752 27.7775L10.5222 27.7774H10.6794L10.8407 27.7775H10.9213L11.0061 27.7774L11.1229 27.7775C11.4656 27.7854 11.5966 27.7894 11.6621 27.7914C11.6915 27.7923 11.7077 27.7928 11.7239 27.793C11.7438 27.7934 11.7638 27.7934 11.8083 27.7934L12.6146 27.8332ZM10.2396 25.3232C10.1112 25.5006 9.94766 25.6511 9.75844 25.7662C9.37628 25.9986 8.91258 26.0725 8.46934 25.9715C8.02611 25.8705 7.63966 25.603 7.395 25.2278C7.27385 25.0421 7.19117 24.8354 7.15166 24.6198C7.11215 24.4041 7.11659 24.1836 7.16473 23.9709C7.21288 23.7581 7.30377 23.5573 7.43224 23.3799C7.5607 23.2025 7.72421 23.052 7.91344 22.9369C8.2956 22.7045 8.7593 22.6307 9.20253 22.7316C9.64576 22.8326 10.0322 23.1001 10.2769 23.4753C10.398 23.6611 10.4807 23.8677 10.5202 24.0834C10.5597 24.299 10.5553 24.5195 10.5071 24.7323C10.459 24.945 10.3681 25.1458 10.2396 25.3232ZM12.1667 20.0104L13.0109 19.981C13.1182 19.9772 13.1719 19.9225 13.1719 19.8168L13.1711 18.3332C13.1711 18.3226 13.1676 18.3122 13.1613 18.3036C13.1549 18.295 13.1459 18.2886 13.1357 18.2854C13.031 18.2504 12.9371 18.2334 12.854 18.2344C12.4553 18.2397 12.0712 18.2461 11.7015 18.2535C9.81179 18.2445 7.93362 18.2403 6.067 18.2408C5.48378 18.2408 5.04864 18.2788 4.76159 18.3547C4.10701 18.5284 3.53855 18.8713 3.0562 19.3834C2.40028 20.0806 2.08238 21.6167 2.79705 22.3577C3.41273 22.996 4.42438 22.7976 4.6964 21.9554C4.76155 21.755 4.75718 21.5362 4.75288 21.3211C4.74778 21.066 4.74278 20.816 4.85415 20.608C5.05374 20.2359 5.55997 20.0407 5.95271 20.0423C8.0243 20.0513 10.0956 20.0407 12.1667 20.0104ZM8.93964 14.1856L1.85222 14.1562C1.75847 14.1621 1.65352 14.1651 1.54344 14.1683H1.54334H1.54324H1.54319C1.17246 14.179 0.743695 14.1914 0.489652 14.3175C-0.126611 14.6234 -0.0628025 15.4711 0.454115 15.8493C0.581191 15.9425 0.798457 16.0032 1.10592 16.0312C1.35684 16.0079 1.6118 15.9963 1.87079 15.9963C5.08322 15.9936 8.29457 15.9939 11.5048 15.9971C11.5242 15.9851 12.4583 15.9995 12.9064 16.0065C13.0326 16.0084 13.1202 16.0098 13.138 16.0098C13.21 16.0098 13.2187 16.0098 13.2187 15.9303V15.692V15.6029V15.2947V15.1358V14.7386V14.5003V14.2619C13.2187 14.2224 13.2187 14.2025 13.2088 14.1925C13.1988 14.1825 13.1786 14.1825 13.138 14.1825C13.1262 14.1771 11.6194 14.1806 11.0083 14.182L10.7553 14.1825L8.93964 14.1856Z" fill="url(#paint1_linear_116_444)"/>
<path d="M18.9318 15.6702L18.7265 15.6702Z" fill="url(#paint2_linear_116_444)"/>
<path d="M33.8173 26.061C33.8858 24.9392 33.8287 23.7522 33.5554 22.6648C33.1274 20.961 32.2809 19.4102 31.0626 18.2037C30.6584 17.8034 30.2142 17.4109 29.7338 17.1204C29.6719 17.0831 29.582 17.0222 29.4639 16.9377C29.2549 16.7884 29.0154 16.6909 28.7893 16.5759C27.8952 16.1218 26.8744 15.8149 25.8875 15.7482C24.9249 15.6825 24.1822 15.7117 22.9719 15.702" fill="url(#paint3_linear_116_444)"/>
<path d="M22.9719 15.702L21.4865 15.6748Z" fill="url(#paint4_linear_116_444)"/>
<path d="M21.4865 15.6748L18.9318 15.6702Z" fill="url(#paint5_linear_116_444)"/>
<path d="M33.8173 26.061C33.7623 26.7537 33.6321 27.4277 33.4264 28.0829C33.3264 28.4021 33.1769 28.7387 33.0422 29.061" fill="url(#paint6_linear_116_444)"/>
<path d="M31.8177 31.1275L32.3281 30.4004Z" fill="url(#paint7_linear_116_444)"/>
<path d="M18.7265 15.6702H18.5186C18.5186 15.7501 18.5186 15.8204 18.5157 15.8672C18.5156 15.8907 18.5156 16.1016 18.5156 16.1485C18.5156 16.5704 18.5186 16.336 18.5186 16.6876C18.5157 16.7344 18.5151 16.8087 18.5157 16.8679L18.5186 17.2703" fill="url(#paint8_linear_116_444)"/>
<path d="M18.5186 17.2703L18.5205 20.5556Z" fill="url(#paint9_linear_116_444)"/>
<path d="M18.5205 20.5556L18.5186 22.6104Z" fill="url(#paint10_linear_116_444)"/>
<path d="M18.5186 22.6104L18.5205 25.0895Z" fill="url(#paint11_linear_116_444)"/>
<path d="M18.5205 25.0895L18.5153 26.7722Z" fill="url(#paint12_linear_116_444)"/>
<path d="M18.5153 26.7722L18.5234 28.7618Z" fill="url(#paint13_linear_116_444)"/>
<path d="M18.5234 28.7618C18.5094 29.5432 18.5119 30.3198 18.531 31.0916C18.5341 31.2141 18.5241 31.3812 18.501 31.593" fill="url(#paint14_linear_116_444)"/>
<path d="M18.501 31.593L18.5281 34.3775C18.5282 34.3928 18.534 34.4074 18.544 34.4182C18.5541 34.4289 18.5677 34.435 18.5819 34.435L23.4614 34.438" fill="url(#paint15_linear_116_444)"/>
<path d="M23.4614 34.438C24.3183 34.436 25.2757 34.4935 26.0713 34.397C26.5651 34.3368 27.1304 34.2104 27.7671 34.0178C28.3457 33.8429 28.9288 33.5786 29.5163 33.2249" fill="url(#paint16_linear_116_444)"/>
<path d="M29.5163 33.2249C30.404 32.6789 31.1712 31.9798 31.8177 31.1275Z" fill="url(#paint17_linear_116_444)"/>
<path d="M33.0422 29.061C32.8457 29.5358 32.6077 29.9823 32.3281 30.4004Z" fill="url(#paint18_linear_116_444)"/>
<path d="M18.9318 15.6702L18.7265 15.6702H18.5186C18.5186 15.7501 18.5186 15.8204 18.5157 15.8672C18.5156 15.8907 18.5156 16.1016 18.5156 16.1485C18.5156 16.5704 18.5186 16.336 18.5186 16.6876C18.5157 16.7344 18.5151 16.8087 18.5157 16.8679L18.5186 17.2703L18.5205 20.5556L18.5186 22.6104L18.5205 25.0895L18.5153 26.7722L18.5234 28.7618C18.5094 29.5432 18.5119 30.3198 18.531 31.0916C18.5341 31.2141 18.5241 31.3812 18.501 31.593L18.5281 34.3775C18.5282 34.3928 18.534 34.4074 18.544 34.4182C18.5541 34.4289 18.5677 34.435 18.5819 34.435L23.4614 34.438C24.3183 34.436 25.2757 34.4935 26.0713 34.397C26.5651 34.3368 27.1304 34.2104 27.7671 34.0178C28.3457 33.8429 28.9288 33.5786 29.5163 33.2249C30.404 32.6789 31.1712 31.9798 31.8177 31.1275L32.3281 30.4004C32.6077 29.9823 32.8457 29.5358 33.0422 29.061C33.1769 28.7387 33.3264 28.4021 33.4264 28.0829C33.6321 27.4277 33.7623 26.7537 33.8173 26.061C33.8858 24.9392 33.8287 23.7522 33.5554 22.6648C33.1274 20.961 32.2809 19.4102 31.0626 18.2037C30.6584 17.8034 30.2142 17.4109 29.7338 17.1204C29.6719 17.0831 29.582 17.0222 29.4639 16.9377C29.2549 16.7884 29.0154 16.6909 28.7893 16.5759C27.8952 16.1218 26.8744 15.8149 25.8875 15.7482C24.9249 15.6825 24.1822 15.7117 22.9719 15.702L21.4865 15.6748L18.9318 15.6702Z" fill="url(#paint19_linear_116_444)"/>
<defs>
<linearGradient id="paint0_linear_116_444" x1="48" y1="0" x2="0" y2="48" gradientUnits="userSpaceOnUse">
<stop stop-color="#136D60"/>
<stop offset="1"/>
</linearGradient>
<linearGradient id="paint1_linear_116_444" x1="47.6484" y1="0.117188" x2="0.0468745" y2="47.8828" gradientUnits="userSpaceOnUse">
<stop stop-color="#32DCC6"/>
<stop offset="0.59375" stop-color="#32DCC6" stop-opacity="0.375"/>
<stop offset="1" stop-color="#32DCC6" stop-opacity="0"/>
</linearGradient>
<linearGradient id="paint2_linear_116_444" x1="47.7421" y1="0.351625" x2="-0.023482" y2="47.8829" gradientUnits="userSpaceOnUse">
<stop stop-color="#136D60"/>
<stop offset="1"/>
</linearGradient>
<linearGradient id="paint3_linear_116_444" x1="47.7421" y1="0.351625" x2="-0.023482" y2="47.8829" gradientUnits="userSpaceOnUse">
<stop stop-color="#136D60"/>
<stop offset="1"/>
</linearGradient>
<linearGradient id="paint4_linear_116_444" x1="47.7421" y1="0.351625" x2="-0.023482" y2="47.8829" gradientUnits="userSpaceOnUse">
<stop stop-color="#136D60"/>
<stop offset="1"/>
</linearGradient>
<linearGradient id="paint5_linear_116_444" x1="47.7421" y1="0.351625" x2="-0.023482" y2="47.8829" gradientUnits="userSpaceOnUse">
<stop stop-color="#136D60"/>
<stop offset="1"/>
</linearGradient>
<linearGradient id="paint6_linear_116_444" x1="47.7421" y1="0.351625" x2="-0.023482" y2="47.8829" gradientUnits="userSpaceOnUse">
<stop stop-color="#136D60"/>
<stop offset="1"/>
</linearGradient>
<linearGradient id="paint7_linear_116_444" x1="47.7421" y1="0.351625" x2="-0.023482" y2="47.8829" gradientUnits="userSpaceOnUse">
<stop stop-color="#136D60"/>
<stop offset="1"/>
</linearGradient>
<linearGradient id="paint8_linear_116_444" x1="47.7421" y1="0.351625" x2="-0.023482" y2="47.8829" gradientUnits="userSpaceOnUse">
<stop stop-color="#136D60"/>
<stop offset="1"/>
</linearGradient>
<linearGradient id="paint9_linear_116_444" x1="47.7421" y1="0.351625" x2="-0.023482" y2="47.8829" gradientUnits="userSpaceOnUse">
<stop stop-color="#136D60"/>
<stop offset="1"/>
</linearGradient>
<linearGradient id="paint10_linear_116_444" x1="47.7421" y1="0.351625" x2="-0.023482" y2="47.8829" gradientUnits="userSpaceOnUse">
<stop stop-color="#136D60"/>
<stop offset="1"/>
</linearGradient>
<linearGradient id="paint11_linear_116_444" x1="47.7421" y1="0.351625" x2="-0.023482" y2="47.8829" gradientUnits="userSpaceOnUse">
<stop stop-color="#136D60"/>
<stop offset="1"/>
</linearGradient>
<linearGradient id="paint12_linear_116_444" x1="47.7421" y1="0.351625" x2="-0.023482" y2="47.8829" gradientUnits="userSpaceOnUse">
<stop stop-color="#136D60"/>
<stop offset="1"/>
</linearGradient>
<linearGradient id="paint13_linear_116_444" x1="47.7421" y1="0.351625" x2="-0.023482" y2="47.8829" gradientUnits="userSpaceOnUse">
<stop stop-color="#136D60"/>
<stop offset="1"/>
</linearGradient>
<linearGradient id="paint14_linear_116_444" x1="47.7421" y1="0.351625" x2="-0.023482" y2="47.8829" gradientUnits="userSpaceOnUse">
<stop stop-color="#136D60"/>
<stop offset="1"/>
</linearGradient>
<linearGradient id="paint15_linear_116_444" x1="47.7421" y1="0.351625" x2="-0.023482" y2="47.8829" gradientUnits="userSpaceOnUse">
<stop stop-color="#136D60"/>
<stop offset="1"/>
</linearGradient>
<linearGradient id="paint16_linear_116_444" x1="47.7421" y1="0.351625" x2="-0.023482" y2="47.8829" gradientUnits="userSpaceOnUse">
<stop stop-color="#136D60"/>
<stop offset="1"/>
</linearGradient>
<linearGradient id="paint17_linear_116_444" x1="47.7421" y1="0.351625" x2="-0.023482" y2="47.8829" gradientUnits="userSpaceOnUse">
<stop stop-color="#136D60"/>
<stop offset="1"/>
</linearGradient>
<linearGradient id="paint18_linear_116_444" x1="47.7421" y1="0.351625" x2="-0.023482" y2="47.8829" gradientUnits="userSpaceOnUse">
<stop stop-color="#136D60"/>
<stop offset="1"/>
</linearGradient>
<linearGradient id="paint19_linear_116_444" x1="47.7421" y1="0.351625" x2="-0.023482" y2="47.8829" gradientUnits="userSpaceOnUse">
<stop stop-color="#136D60"/>
<stop offset="1"/>
</linearGradient>
</defs>
</svg>
