<?xml version="1.0" encoding="UTF-8" standalone="no"?>
<!DOCTYPE svg PUBLIC "-//W3C//DTD SVG 1.1//EN" "http://www.w3.org/Graphics/SVG/1.1/DTD/svg11.dtd">
<svg xmlns="http://www.w3.org/2000/svg" version="1.1" viewBox="0.00 0.00 500.00 500.00">
<path fill="#000000" d="
  M 500.00 69.60
  L 500.00 362.77
  C 498.61 381.50 486.23 397.52 468.31 402.63
  C 458.50 405.42 444.51 404.45 433.29 404.32
  A 0.86 0.86 0.0 0 0 432.47 405.46
  L 444.98 441.52
  Q 445.20 442.15 445.86 442.27
  C 451.49 443.34 456.30 445.33 459.53 450.13
  C 464.34 457.29 460.82 464.85 454.11 468.99
  C 448.96 472.17 442.65 471.89 437.00 471.89
  Q 359.18 471.88 281.37 471.78
  Q 276.67 471.77 275.26 471.54
  C 268.71 470.44 262.36 466.14 260.71 459.58
  C 258.78 451.85 265.81 444.79 272.81 443.24
  A 1.58 1.58 0.0 0 0 273.96 442.22
  L 286.92 405.13
  A 0.56 0.55 -80.3 0 0 286.40 404.39
  Q 165.79 404.48 45.75 404.41
  C 20.42 404.39 1.89 387.17 0.00 362.18
  L 0.00 69.50
  Q 1.96 48.52 18.82 36.32
  C 29.52 28.58 38.55 28.15 51.00 28.15
  Q 247.17 28.12 443.35 28.11
  Q 459.50 28.11 463.31 28.73
  C 483.51 32.03 498.31 49.07 500.00 69.60
  Z
  M 486.76 106.15
  Q 486.79 106.18 486.81 106.22
  Q 486.90 106.37 487.00 106.27
  Q 487.31 105.98 487.31 105.50
  Q 487.35 88.37 487.10 71.25
  Q 486.94 60.62 480.58 52.67
  Q 471.21 40.96 455.75 40.95
  Q 250.25 40.75 44.75 40.64
  C 30.86 40.63 18.30 49.30 14.16 62.42
  Q 12.69 67.07 12.66 76.74
  Q 12.62 91.08 12.66 105.70
  A 0.48 0.48 0.0 0 0 13.38 106.11
  Q 13.81 105.86 14.50 105.87
  Q 21.88 105.92 29.25 105.92
  Q 250.47 105.92 471.68 106.02
  C 475.20 106.02 481.62 105.66 486.62 106.07
  Q 486.71 106.08 486.76 106.15
  Z
  M 376.58 259.03
  C 379.22 259.05 381.75 260.68 382.62 263.17
  Q 404.90 327.19 427.40 391.07
  A 1.17 1.17 0.0 0 0 428.49 391.85
  Q 441.50 391.95 454.52 391.76
  Q 461.60 391.66 465.82 390.25
  C 476.25 386.77 484.16 378.35 486.59 367.29
  Q 487.36 363.79 487.36 362.25
  Q 487.37 240.74 487.36 119.16
  Q 487.36 118.54 486.74 118.54
  L 13.36 118.51
  Q 12.65 118.51 12.65 119.21
  Q 12.57 237.33 12.60 355.01
  Q 12.61 364.66 13.77 368.90
  C 16.75 379.79 25.96 388.70 36.90 391.10
  Q 40.37 391.87 55.15 391.87
  Q 173.06 391.87 290.87 391.87
  A 1.11 1.10 -80.3 0 0 291.91 391.13
  Q 314.26 327.07 336.56 263.57
  C 337.71 260.31 339.85 259.06 343.41 259.04
  Q 360.00 258.94 376.58 259.03
  Z
  M 380.53 297.61
  A 0.55 0.55 0.0 0 0 381.05 296.88
  L 372.28 271.90
  A 0.55 0.55 0.0 0 0 371.76 271.53
  L 347.53 271.52
  A 0.55 0.55 0.0 0 0 347.01 271.89
  L 338.24 296.87
  A 0.55 0.55 0.0 0 0 338.76 297.60
  L 380.53 297.61
  Z
  M 333.94 310.18
  A 0.54 0.54 0.0 0 0 333.43 310.54
  L 325.35 333.39
  A 0.54 0.54 0.0 0 0 325.86 334.11
  L 393.36 334.12
  A 0.54 0.54 0.0 0 0 393.87 333.40
  L 385.83 310.55
  A 0.54 0.54 0.0 0 0 385.32 310.19
  L 333.94 310.18
  Z
  M 406.12 370.47
  A 0.46 0.46 0.0 0 0 406.55 369.86
  L 398.51 347.06
  A 0.46 0.46 0.0 0 0 398.07 346.75
  L 321.03 346.74
  A 0.46 0.46 0.0 0 0 320.59 347.05
  L 312.66 369.88
  A 0.46 0.46 0.0 0 0 313.10 370.49
  L 406.12 370.47
  Z
  M 308.29 383.11
  A 0.44 0.44 0.0 0 0 307.88 383.41
  L 300.13 405.87
  A 0.44 0.44 0.0 0 0 300.55 406.45
  L 418.80 406.44
  A 0.44 0.44 0.0 0 0 419.21 405.85
  L 411.31 383.40
  A 0.44 0.44 0.0 0 0 410.90 383.11
  L 308.29 383.11
  Z
  M 295.84 419.08
  A 0.61 0.61 0.0 0 0 295.27 419.49
  L 287.56 441.40
  A 0.61 0.61 0.0 0 0 288.13 442.21
  L 431.10 442.19
  A 0.61 0.61 0.0 0 0 431.67 441.38
  L 423.98 419.50
  A 0.61 0.61 0.0 0 0 423.41 419.09
  L 295.84 419.08
  Z
  M 273.70 457.70
  Q 276.90 459.31 280.00 459.31
  Q 361.62 459.25 443.25 459.23
  Q 446.21 459.23 448.83 457.26
  Q 449.18 456.99 448.83 456.72
  C 445.40 453.98 440.30 454.94 436.25 454.93
  Q 358.37 454.75 280.50 454.80
  Q 277.08 454.80 274.01 456.16
  Q 273.08 456.57 273.35 457.31
  A 0.75 0.73 3.6 0 0 273.70 457.70
  Z"
/>
<path fill="#000000" d="
  M 352.71 74.81
  A 19.38 19.38 0.0 0 1 333.33 94.19
  A 19.38 19.38 0.0 0 1 313.95 74.81
  A 19.38 19.38 0.0 0 1 333.33 55.43
  A 19.38 19.38 0.0 0 1 352.71 74.81
  Z
  M 340.09 74.80
  A 6.78 6.78 0.0 0 0 333.31 68.02
  A 6.78 6.78 0.0 0 0 326.53 74.80
  A 6.78 6.78 0.0 0 0 333.31 81.58
  A 6.78 6.78 0.0 0 0 340.09 74.80
  Z"
/>
<path fill="#000000" d="
  M 409.28 74.81
  A 19.36 19.36 0.0 0 1 389.92 94.17
  A 19.36 19.36 0.0 0 1 370.56 74.81
  A 19.36 19.36 0.0 0 1 389.92 55.45
  A 19.36 19.36 0.0 0 1 409.28 74.81
  Z
  M 396.71 74.79
  A 6.77 6.77 0.0 0 0 389.94 68.02
  A 6.77 6.77 0.0 0 0 383.17 74.79
  A 6.77 6.77 0.0 0 0 389.94 81.56
  A 6.77 6.77 0.0 0 0 396.71 74.79
  Z"
/>
<path fill="#000000" d="
  M 465.93 74.80
  A 19.37 19.37 0.0 0 1 446.56 94.17
  A 19.37 19.37 0.0 0 1 427.19 74.80
  A 19.37 19.37 0.0 0 1 446.56 55.43
  A 19.37 19.37 0.0 0 1 465.93 74.80
  Z
  M 453.28 74.79
  A 6.77 6.77 0.0 0 0 446.51 68.02
  A 6.77 6.77 0.0 0 0 439.74 74.79
  A 6.77 6.77 0.0 0 0 446.51 81.56
  A 6.77 6.77 0.0 0 0 453.28 74.79
  Z"
/>
</svg>
